<svg width="1920" height="12093" viewBox="0 0 1920 12093" fill="none" xmlns="http://www.w3.org/2000/svg">
<path opacity="0.2" d="M361.755 10654L362.591 10650.4C884.629 10786.5 857.088 11121 827.061 11475.5C804.711 11740.9 782.256 12015.2 983.631 12229.2C1145.33 12401.1 1276.03 12336.7 1427.34 12261.8C1536.9 12208.1 1660.42 12146.8 1814.53 12169.2C1990.94 12195 2179.03 12326.7 2389.15 12572L2386.34 12574.4C2177 12330 1989.57 12198.7 1814.35 12173.1C1661.96 12150.8 1538.31 12211.6 1429.28 12265.2C1276.38 12340.5 1144.75 12405.6 980.826 12231.6C778.013 12016.3 800.873 11741.4 823.096 11475.5C852.971 11122.7 880.764 10789.2 361.755 10654Z" fill="#ABABAB"/>
<path opacity="0.2" d="M2366 -487C1933.17 -471.167 1013.6 -268.7 798 414.5C582.4 1097.7 1292.83 1835.5 1675 2119C2086.17 2390.33 2661.8 3495.5 1675 5745.5C441.5 8558 607.5 8772.5 1675 10204.5L2468.5 11233.5C2201.83 11268.8 1694.1 11538.9 1796.5 12336.5C1898.9 13134.1 801.833 14058.5 240.5 14421" stroke="#ABABAB" stroke-width="2"/>
<path opacity="0.2" d="M-664 -396.5C-231.167 -380.667 688.4 -178.2 904 505C1119.6 1188.2 409.167 1926 27 2209.5C-384.167 2480.83 -959.8 3586 27 5836C1260.5 8648.5 1094.5 8863 27 10295" stroke="#ABABAB" stroke-width="2"/>
</svg>
